#N canvas 0 23 2560 1369 12;
#X obj 701 644 dac~;
#X obj 612 261 osc~;
#X obj 668 260 osc~;
#X obj 726 261 osc~;
#X obj 773 261 osc~;
#X obj 564 16 vsl 15 128 0.7 90 0 0 empty empty empty 0 -9 0 10 -262144
-1 -1 25500 1;
#X floatatom 565 159 5 0 0 0 - - -;
#X obj 647 194 * 2;
#X obj 679 196 * 3.2;
#X obj 756 199 * 4.3;
#X obj 816 262 osc~;
#X obj 880 261 osc~;
#X obj 925 262 osc~;
#X obj 808 201 * 4.7;
#X obj 875 199 * 5.1;
#X obj 921 200 * 5.8;
#X obj 653 510 samphold~;
#X obj 762 555 osc~ 880;
#X obj 762 416 vsl 15 128 80 2000 0 0 empty empty empty 0 -9 0 10 -262144
-1 -1 25500 1;
#X floatatom 809 534 5 0 0 0 - - -;
#X obj 118 241 samphold~;
#X obj 104 206 noise~;
#X text 664 23 the lower this number \, the longer the tailoff of the
trigger to the left;
#X text 833 488 the lower this number \, the deeper the sound;
#X text 667 57 therefore this should be set by a variable on exiting
the while loop;
#X text 835 459 this number gets swept through \, tied to velocity
;
#X obj 839 510 r VelocityHighToLow @hv_param 80 2000 1900;
#X obj 702 613 *~ 0.1;
#X obj 625 575 clip~ -1 1;
#X obj 653 534 *~ 0.1;
#X obj 344 373 bp~, f 7;
#X obj 444 122 vsl 15 128 0 1 0 0 empty empty empty 0 -9 0 10 -262144
-1 -1 17400 1;
#X obj 361 131 vsl 15 128 80 20000 0 0 empty empty empty 0 -9 0 10
-262144 -1 -1 11700 1;
#X floatatom 444 258 5 0 0 0 - - -;
#X floatatom 361 267 5 0 0 0 - - -;
#X obj 177 212 phasor~ 1;
#X obj 100 24 vsl 15 128 0.1 1000 0 0 empty empty empty 0 -9 0 10 -262144
-1 -1 13300 1;
#X floatatom 100 160 5 0 0 0 - - -;
#X obj 357 426 *~;
#X obj 264 32 r Mass @hv_param 0.1 1000 700;
#X obj 283 63 r BpCentre @hv_param 80 20000 700;
#X obj 391 88 r BpQ @hv_param 0 1 0.5;
#X obj 610 105 r Granuliser @hv_param 0.7 90 70;
#X obj 641 287 +~;
#X obj 748 286 +~;
#X obj 852 289 +~;
#X obj 871 322 +~;
#X obj 693 322 +~;
#X obj 779 346 +~;
#X connect 1 0 43 0;
#X connect 2 0 43 1;
#X connect 3 0 44 0;
#X connect 4 0 44 1;
#X connect 5 0 1 0;
#X connect 5 0 6 0;
#X connect 5 0 7 0;
#X connect 5 0 8 0;
#X connect 5 0 9 0;
#X connect 5 0 13 0;
#X connect 5 0 14 0;
#X connect 5 0 15 0;
#X connect 7 0 2 0;
#X connect 8 0 3 0;
#X connect 9 0 4 0;
#X connect 10 0 45 0;
#X connect 11 0 45 1;
#X connect 12 0 46 1;
#X connect 13 0 10 0;
#X connect 14 0 11 0;
#X connect 15 0 12 0;
#X connect 16 0 29 0;
#X connect 17 0 16 1;
#X connect 18 0 17 0;
#X connect 18 0 19 0;
#X connect 20 0 30 0;
#X connect 21 0 20 0;
#X connect 26 0 17 0;
#X connect 27 0 0 0;
#X connect 27 0 0 1;
#X connect 28 0 27 0;
#X connect 29 0 28 0;
#X connect 30 0 38 0;
#X connect 31 0 30 2;
#X connect 31 0 33 0;
#X connect 32 0 30 1;
#X connect 32 0 34 0;
#X connect 35 0 20 1;
#X connect 36 0 37 0;
#X connect 36 0 35 0;
#X connect 38 0 16 0;
#X connect 39 0 35 0;
#X connect 40 0 30 1;
#X connect 41 0 30 2;
#X connect 42 0 7 0;
#X connect 42 0 8 0;
#X connect 42 0 9 0;
#X connect 42 0 13 0;
#X connect 42 0 14 0;
#X connect 42 0 15 0;
#X connect 42 0 1 0;
#X connect 43 0 47 0;
#X connect 44 0 47 1;
#X connect 45 0 46 0;
#X connect 46 0 48 1;
#X connect 47 0 48 0;
#X connect 48 0 38 1;
